<mxfile host="app.diagrams.net" agent="Mozilla/5.0 (Windows NT 10.0; Win64; x64) AppleWebKit/537.36 (KHTML, like Gecko) Chrome/121.0.0.0 Safari/537.36" version="26.0.6">
  <diagram name="第 1 页" id="pGeVLgVb4Bicyb-vC_LK">
    <mxGraphModel dx="1142" dy="714" grid="1" gridSize="10" guides="1" tooltips="1" connect="1" arrows="1" fold="1" page="1" pageScale="1" pageWidth="850" pageHeight="1100" math="0" shadow="0">
      <root>
        <mxCell id="0" />
        <mxCell id="1" parent="0" />
        <mxCell id="Ob4beWThPmtJg4aA9WiF-1" value="«component»&lt;br&gt;&lt;b&gt;日志库&lt;/b&gt;" style="html=1;dropTarget=0;whiteSpace=wrap;fillColor=#dae8fc;strokeColor=#6c8ebf;verticalAlign=top;" vertex="1" parent="1">
          <mxGeometry x="296" y="150" width="532" height="350" as="geometry" />
        </mxCell>
        <mxCell id="Ob4beWThPmtJg4aA9WiF-2" value="" style="shape=module;jettyWidth=8;jettyHeight=4;" vertex="1" parent="Ob4beWThPmtJg4aA9WiF-1">
          <mxGeometry x="1" width="20" height="20" relative="1" as="geometry">
            <mxPoint x="-27" y="7" as="offset" />
          </mxGeometry>
        </mxCell>
        <mxCell id="Ob4beWThPmtJg4aA9WiF-6" value="" style="html=1;rounded=0;direction=north;" vertex="1" parent="1">
          <mxGeometry x="290" y="315" width="20" height="20" as="geometry" />
        </mxCell>
        <mxCell id="Ob4beWThPmtJg4aA9WiF-7" value="" style="endArrow=none;html=1;rounded=0;align=center;verticalAlign=top;endFill=0;labelBackgroundColor=none;endSize=2;" edge="1" source="Ob4beWThPmtJg4aA9WiF-8" target="Ob4beWThPmtJg4aA9WiF-6" parent="1">
          <mxGeometry relative="1" as="geometry" />
        </mxCell>
        <mxCell id="Ob4beWThPmtJg4aA9WiF-8" value="" style="ellipse;html=1;fontSize=11;align=center;fillColor=none;points=[];aspect=fixed;resizable=0;verticalAlign=bottom;labelPosition=center;verticalLabelPosition=top;flipH=1;" vertex="1" parent="1">
          <mxGeometry x="220" y="321" width="8" height="8" as="geometry" />
        </mxCell>
        <mxCell id="Ob4beWThPmtJg4aA9WiF-9" value="日志模块dlt接口" style="text;html=1;align=center;verticalAlign=middle;whiteSpace=wrap;rounded=0;" vertex="1" parent="1">
          <mxGeometry x="194" y="270" width="60" height="30" as="geometry" />
        </mxCell>
        <mxCell id="Ob4beWThPmtJg4aA9WiF-11" value="" style="ellipse;whiteSpace=wrap;html=1;align=center;aspect=fixed;fillColor=none;strokeColor=none;resizable=0;perimeter=centerPerimeter;rotatable=0;allowArrows=0;points=[];outlineConnect=1;" vertex="1" parent="1">
          <mxGeometry x="80" y="370" width="10" height="10" as="geometry" />
        </mxCell>
        <mxCell id="Ob4beWThPmtJg4aA9WiF-12" value="«component»&lt;br&gt;&lt;b&gt;应用程序&lt;/b&gt;" style="html=1;dropTarget=0;whiteSpace=wrap;fillColor=#fff2cc;strokeColor=#d6b656;" vertex="1" parent="1">
          <mxGeometry x="20" y="291" width="160" height="70" as="geometry" />
        </mxCell>
        <mxCell id="Ob4beWThPmtJg4aA9WiF-13" value="" style="shape=module;jettyWidth=8;jettyHeight=4;" vertex="1" parent="Ob4beWThPmtJg4aA9WiF-12">
          <mxGeometry x="1" width="20" height="20" relative="1" as="geometry">
            <mxPoint x="-27" y="7" as="offset" />
          </mxGeometry>
        </mxCell>
        <mxCell id="Ob4beWThPmtJg4aA9WiF-14" value="" style="rounded=0;orthogonalLoop=1;jettySize=auto;html=1;endArrow=halfCircle;endFill=0;endSize=6;strokeWidth=1;sketch=0;fontSize=12;curved=1;exitX=1;exitY=0.5;exitDx=0;exitDy=0;entryX=0.625;entryY=0.625;entryDx=0;entryDy=0;entryPerimeter=0;" edge="1" target="Ob4beWThPmtJg4aA9WiF-8" parent="1" source="Ob4beWThPmtJg4aA9WiF-12">
          <mxGeometry relative="1" as="geometry">
            <mxPoint x="220" y="330" as="targetPoint" />
          </mxGeometry>
        </mxCell>
        <mxCell id="Ob4beWThPmtJg4aA9WiF-15" value="" style="ellipse;whiteSpace=wrap;html=1;align=center;aspect=fixed;fillColor=none;strokeColor=none;resizable=0;perimeter=centerPerimeter;rotatable=0;allowArrows=0;points=[];outlineConnect=1;" vertex="1" parent="1">
          <mxGeometry x="150" y="321" width="10" height="10" as="geometry" />
        </mxCell>
        <mxCell id="Ob4beWThPmtJg4aA9WiF-16" value="" style="html=1;rounded=0;aspect=fixed;" vertex="1" parent="1">
          <mxGeometry x="370" y="490" width="20" height="20.69" as="geometry" />
        </mxCell>
        <mxCell id="Ob4beWThPmtJg4aA9WiF-19" value="«component»&lt;div&gt;glibc&lt;/div&gt;" style="html=1;dropTarget=0;whiteSpace=wrap;fillColor=#e1d5e7;strokeColor=#9673a6;" vertex="1" parent="1">
          <mxGeometry x="313" y="590" width="134" height="70" as="geometry" />
        </mxCell>
        <mxCell id="Ob4beWThPmtJg4aA9WiF-20" value="" style="shape=module;jettyWidth=8;jettyHeight=4;" vertex="1" parent="Ob4beWThPmtJg4aA9WiF-19">
          <mxGeometry x="1" width="20" height="20" relative="1" as="geometry">
            <mxPoint x="-27" y="7" as="offset" />
          </mxGeometry>
        </mxCell>
        <mxCell id="Ob4beWThPmtJg4aA9WiF-22" value="" style="ellipse;whiteSpace=wrap;html=1;align=center;aspect=fixed;fillColor=none;strokeColor=none;resizable=0;perimeter=centerPerimeter;rotatable=0;allowArrows=0;points=[];outlineConnect=1;" vertex="1" parent="1">
          <mxGeometry x="250" y="540" width="10" height="10" as="geometry" />
        </mxCell>
        <mxCell id="Ob4beWThPmtJg4aA9WiF-24" value="" style="html=1;rounded=0;aspect=fixed;" vertex="1" parent="1">
          <mxGeometry x="370" y="580" width="20" height="20" as="geometry" />
        </mxCell>
        <mxCell id="Ob4beWThPmtJg4aA9WiF-27" value="" style="rounded=0;orthogonalLoop=1;jettySize=auto;html=1;endArrow=halfCircle;endFill=0;endSize=6;strokeWidth=1;sketch=0;exitX=0.5;exitY=1;exitDx=0;exitDy=0;" edge="1" target="Ob4beWThPmtJg4aA9WiF-29" parent="1" source="Ob4beWThPmtJg4aA9WiF-16">
          <mxGeometry relative="1" as="geometry">
            <mxPoint x="275" y="555" as="sourcePoint" />
          </mxGeometry>
        </mxCell>
        <mxCell id="Ob4beWThPmtJg4aA9WiF-28" value="" style="rounded=0;orthogonalLoop=1;jettySize=auto;html=1;endArrow=oval;endFill=0;sketch=0;sourcePerimeterSpacing=0;targetPerimeterSpacing=0;endSize=10;exitX=0.5;exitY=0;exitDx=0;exitDy=0;" edge="1" target="Ob4beWThPmtJg4aA9WiF-29" parent="1" source="Ob4beWThPmtJg4aA9WiF-24">
          <mxGeometry relative="1" as="geometry">
            <mxPoint x="235" y="555" as="sourcePoint" />
          </mxGeometry>
        </mxCell>
        <mxCell id="Ob4beWThPmtJg4aA9WiF-29" value="" style="ellipse;whiteSpace=wrap;html=1;align=center;aspect=fixed;fillColor=none;strokeColor=none;resizable=0;perimeter=centerPerimeter;rotatable=0;allowArrows=0;points=[];outlineConnect=1;" vertex="1" parent="1">
          <mxGeometry x="375" y="550" width="10" height="10" as="geometry" />
        </mxCell>
        <mxCell id="Ob4beWThPmtJg4aA9WiF-33" value="«component»&lt;div&gt;日志器&lt;/div&gt;" style="html=1;dropTarget=0;whiteSpace=wrap;fillColor=#1ba1e2;strokeColor=#006EAF;fontColor=#ffffff;" vertex="1" parent="1">
          <mxGeometry x="313" y="370" width="134" height="70" as="geometry" />
        </mxCell>
        <mxCell id="Ob4beWThPmtJg4aA9WiF-34" value="" style="shape=module;jettyWidth=8;jettyHeight=4;" vertex="1" parent="Ob4beWThPmtJg4aA9WiF-33">
          <mxGeometry x="1" width="20" height="20" relative="1" as="geometry">
            <mxPoint x="-27" y="7" as="offset" />
          </mxGeometry>
        </mxCell>
        <mxCell id="Ob4beWThPmtJg4aA9WiF-35" value="" style="rounded=0;orthogonalLoop=1;jettySize=auto;html=1;endArrow=halfCircle;endFill=0;endSize=6;strokeWidth=1;sketch=0;exitX=0.5;exitY=1;exitDx=0;exitDy=0;" edge="1" target="Ob4beWThPmtJg4aA9WiF-37" parent="1" source="Ob4beWThPmtJg4aA9WiF-33">
          <mxGeometry relative="1" as="geometry">
            <mxPoint x="447" y="465" as="sourcePoint" />
          </mxGeometry>
        </mxCell>
        <mxCell id="Ob4beWThPmtJg4aA9WiF-36" value="" style="rounded=0;orthogonalLoop=1;jettySize=auto;html=1;endArrow=oval;endFill=0;sketch=0;sourcePerimeterSpacing=0;targetPerimeterSpacing=0;endSize=10;exitX=0.5;exitY=0;exitDx=0;exitDy=0;" edge="1" target="Ob4beWThPmtJg4aA9WiF-37" parent="1" source="Ob4beWThPmtJg4aA9WiF-16">
          <mxGeometry relative="1" as="geometry">
            <mxPoint x="407" y="465" as="sourcePoint" />
          </mxGeometry>
        </mxCell>
        <mxCell id="Ob4beWThPmtJg4aA9WiF-37" value="" style="ellipse;whiteSpace=wrap;html=1;align=center;aspect=fixed;fillColor=none;strokeColor=none;resizable=0;perimeter=centerPerimeter;rotatable=0;allowArrows=0;points=[];outlineConnect=1;" vertex="1" parent="1">
          <mxGeometry x="375" y="460" width="10" height="10" as="geometry" />
        </mxCell>
      </root>
    </mxGraphModel>
  </diagram>
</mxfile>
